# xmcd
#
# Track frame offsets: 
#        150
#        16224
#        27751
#        38718
#        52579
#        66229
#        82185
#        97852
#        112132
#        127488
#        144409
#        155132
#        169482
#
# Disc length: 2511 seconds
#
# Revision: 0
# Processed by: cddbd v1.5.1PL2 Copyright (c) Steve Scherf et al.
# Submitted via: ExactAudioCopy v0.95b3
#
DISCID=b209cd0d
DTITLE=Tom Doughty - Running Free
DYEAR=2005
DGENRE=Blues
TTITLE0=Your Picture Has Faded
TTITLE1=Real Emotional Girl
TTITLE2=Catfish Blues
TTITLE3=Darlin' Cora
TTITLE4=Eleanor Rigby
TTITLE5=Ev'ry Time We Say Goodbye
TTITLE6=Koa River
TTITLE7=Some These Days
TTITLE8=Brownsville Blues
TTITLE9=Running Free
TTITLE10=Something Aint Right
TTITLE11=Tears Came Rollin' Down
TTITLE12=Black Orpheus
EXTD=
EXTT0=
EXTT1=
EXTT2=
EXTT3=
EXTT4=
EXTT5=
EXTT6=
EXTT7=
EXTT8=
EXTT9=
EXTT10=
EXTT11=
EXTT12=
PLAYORDER=
